<?xml version="1.0" encoding="UTF-8"?>
<svg id="Layer_1" data-name="Layer 1" xmlns="http://www.w3.org/2000/svg" viewBox="0 0 636 476">
  <defs>
    <style>
      .cls-1 {
        fill: #898989;
      }

      .cls-2 {
        fill: #010101;
      }

      .cls-3 {
        fill: #141414;
      }

      .cls-4 {
        fill: #9a9a9a;
      }

      .cls-5 {
        fill: #b8b8b8;
      }

      .cls-6 {
        fill: #b1b1b1;
      }

      .cls-7 {
        fill: #a7a7a7;
      }

      .cls-8 {
        fill: #4a4a4a;
      }

      .cls-9 {
        fill: #505050;
      }

      .cls-10 {
        fill: #767676;
      }

      .cls-11 {
        fill: #3f3f3f;
      }

      .cls-12 {
        fill: #bababa;
      }

      .cls-13 {
        fill: #020202;
      }

      .cls-14 {
        fill: #a4a4a4;
      }

      .cls-15 {
        fill: #090909;
      }

      .cls-16 {
        fill: #060606;
      }

      .cls-17 {
        fill: #b2b2b2;
      }

      .cls-18 {
        fill: #404040;
      }

      .cls-19 {
        fill: #676671;
      }

      .cls-20 {
        fill: #bbb;
      }

      .cls-21 {
        fill: #737373;
      }

      .cls-22 {
        fill: #bfbfbf;
      }

      .cls-23 {
        fill: #909090;
      }

      .cls-24 {
        fill: #b0b0b0;
      }

      .cls-25 {
        fill: #6c6c6c;
      }

      .cls-26 {
        fill: #212121;
      }

      .cls-27 {
        fill: #939393;
      }

      .cls-28 {
        fill: #555;
      }

      .cls-29 {
        fill: #ecf0f1;
      }

      .cls-30 {
        fill: #0e0e0e;
      }

      .cls-31 {
        fill: #a8a8a8;
      }

      .cls-32 {
        fill: #f9dcf1;
      }

      .cls-33 {
        fill: #919191;
      }

      .cls-34 {
        fill: #888;
      }

      .cls-35 {
        fill: #545454;
      }

      .cls-36 {
        fill: #a5a5a5;
      }

      .cls-37 {
        fill: #a9a9a9;
      }

      .cls-38 {
        fill: #b9b9b9;
      }

      .cls-39 {
        fill: #393939;
      }

      .cls-40 {
        fill: #959595;
      }

      .cls-41 {
        fill: #ababab;
      }

      .cls-42 {
        fill: gray;
      }

      .cls-43 {
        fill: #b6b6b6;
      }

      .cls-44 {
        fill: #adadad;
      }

      .cls-45 {
        fill: #bcbcbc;
      }

      .cls-46 {
        fill: #fefefe;
      }

      .cls-47 {
        fill: #040404;
      }

      .cls-48 {
        fill: #b7b7b7;
      }

      .cls-49 {
        fill: #7a7a7a;
      }

      .cls-50 {
        fill: #9d9d9d;
      }

      .cls-51 {
        fill: #bebebe;
      }

      .cls-52 {
        fill: #5c5c5c;
      }

      .cls-53 {
        fill: #b5b5b5;
      }
    </style>
  </defs>
  <polygon points="0 475.5 0 0 636 0 636 476 0 476 0 475.5"/>
  <path class="cls-29" d="M632.01,453.03l-.42,1.41c-191.92.12-383.89.17-575.91.15-.4,5.22-.3,10.36.32,15.4l.96-2h572.95c1.82.15,2.11,2.37.9,3.5-209.13.29-418.11.07-626.92-.67l.12-.84c.28-.87.62-.86.99,0l.92-2h46.06s.03-11.62.03-11.62l2-1.38c-16.15-.6-32.43-.76-48.82-.48-.44,1.28-.83,1.02-1.19-.48l.03-411.97h627.95s.03,410.97.03,410.97Z"/>
  <g>
    <path class="cls-22" d="M632.07,455.25l-.24,16.75H4.4s-.52-1.17-.52-1.17l626.61.17.66-1H56c-.59-5.02-.7-10.14-.32-15.38,191.84.04,383.74-.04,575.68-.26l.71.89Z"/>
    <polygon class="cls-22" points="613.15 3 25.34 3 22.81 2.48 24.31 1 612.54 1 613.15 3"/>
    <polygon class="cls-22" points="613.15 475 23.38 475 24.29 473 612.54 473 613.15 475"/>
    <path class="cls-22" d="M635,451.86c-.12,1-1.89,1-2,0V24.25s2-.9,2-.9v428.51Z"/>
    <path class="cls-22" d="M3,452.63h-2s0-428.49,0-428.49c.11-1.01,1.89-1.01,2,0v428.49Z"/>
    <polygon class="cls-42" points="632.07 455.25 56.17 455 56 470 54.87 468.11 55.19 454 630.59 454 632.01 453.03 632.07 455.25"/>
    <polygon class="cls-22" points="3.04 472.99 21.87 473.01 21.88 475 .97 474.99 1.07 453.99 2.91 453.99 3.04 472.99"/>
    <polygon class="cls-22" points="614.12 475 614.13 473.01 632.96 472.99 633.09 453.99 634.93 453.99 635.03 474.99 614.12 475"/>
    <polygon class="cls-22" points="21.41 3.02 2.98 2.99 3 21.95 .98 21.35 1 .99 21.6 1 21.41 3.02"/>
    <polygon class="cls-22" points="633.09 22.07 632.96 3.04 613.99 2.91 613.99 1.07 634.99 .97 635.01 21.6 633.09 22.07"/>
    <polygon class="cls-42" points="54.01 455 53.09 457 7.03 457.01 7 468.62 4.99 470 4 470 3.99 454.03 53.02 453.99 54.01 455"/>
    <polygon class="cls-22" points="54.01 455 53.97 470 4.99 470 5.03 455 54.01 455"/>
    <g>
      <polygon class="cls-48" points="614.72 20.98 614.57 4.73 631.53 4.68 632.03 5.94 631.89 21.92 614.03 22 614.72 20.98"/>
      <polygon class="cls-46" points="631.53 4.68 615.11 5.14 614.72 20.98 614.01 4.01 631.53 4.68"/>
      <polygon points="626.25 13.92 618.74 13.94 622.48 9.92 626.25 13.92"/>
    </g>
    <g>
      <polygon class="cls-48" points="595.42 21.76 595.57 4.71 612.69 4.47 613.09 22.08 595.42 21.76"/>
      <polygon class="cls-46" points="612.69 4.47 596.13 5.14 595.42 21.76 595.01 4.01 612.69 4.47"/>
      <polygon points="607.26 11.06 603.52 15.08 599.75 11.08 607.26 11.06"/>
    </g>
    <g>
      <polygon class="cls-46" points="631.83 41 4.16 41 4.16 23 631.53 23 631.83 41"/>
      <g>
        <path d="M100.81,34.96l-.16-3.12-1.61,3.28c.2.56-2.29.55-2.12,0l-1.48-3.29-.45,2.15-.4,2.1-1.62-.6v-8.93s1.55-.61,1.55-.61l.74,1.67,1.66,3.33c-.2,1.04,2.37,1.03,1.96-.11l3.73-5.83.5,11.33-2.31-1.36Z"/>
        <path d="M322.59,26.75l-1.92,3.9-1.63,3.25-.44,2.16c-.29-.09-1.83-.58-1.37-.43l-1.03-3.78c-.03-.37-2.45-.43-2.3-.05l-.94,2.81c-.06,1.4-2.1,2.19-1.7-.1l-3.37-6.58.52-1.96c.13.07,1.74.9,1.1.57l2.87,5.9,1.69-5.34c-.45-.97,2.26-.99,1.91-.01l1.39,5.07,1.68-1.93.86-2.17.51-2.13,2.17.82Z"/>
        <path d="M158.47,34c1.02,2.46-1.11,2.51-1.28.54l-1.05-5.72-1.47,5v2.23s-1.73-.57-1.73-.57l.09-6.48,9.22-.02,1.02,5.82c-.09,1.13-2.64,1.29-2.02.04l-1.05-6.03-1.73,5.18Z"/>
        <path d="M389.04,36.32l-2.31-1.42.32-3.94-3.5.15-1.91,5.98-.91-9.78c.2-1.37,2.79-2.23,1.76.44l2.46,3.36,2.13-2.97c.51-1.38.8-1.76,1.71-2.57l.24,10.73Z"/>
        <path d="M358.34,29.01c-.06-.19,1.83,1.54,1.51,1.44l-1.85,4.95-1.54.67-.83-2.24-1.62,1.1c.22.86-2.17.91-2.18.09l-1.19-3.67-.72-1.9,1.62-.52.74,1.68,1.34,2.53.43-2.71,1.55-.49.45,2.23.53.89,1.76-4.04Z"/>
        <polygon points="257.67 36.51 253.53 35.52 252.93 33.44 254.56 32.93 255.19 34.96 257.99 34.99 257.97 32.15 255.28 31.53 252.57 28.49 255.33 25.49 259.47 26.48 260.07 28.56 258.44 29.07 257.81 27.04 255.01 27.01 255.03 29.85 257.72 30.47 260.43 33.51 257.67 36.51"/>
        <polygon points="59.07 30.73 55.02 31.13 55.02 34.99 59.51 35 60.07 35.82 53.01 36.05 53 26.01 59.51 25.99 60.07 26.76 55.04 27.12 55.02 29.99 58.51 30 59.07 30.73"/>
        <path d="M19.06,30.69l-3.55.51c-.66,2.2-.89,3.02-1.95,5.78l-.79-10.98h6.75s.55.75.55.75l-5.02.36-.03,2.87,3.49.02.55.69Z"/>
        <polygon points="211.06 30.69 207.51 31.2 205.56 36.98 204.77 26 211.52 26 212.07 26.76 207.04 27.12 207.02 29.98 210.5 30 211.06 30.69"/>
        <path d="M331.07,35.1l-.33-5.56-1.71,1.79c-.31,3.07-.28,3.28-1.35,5.58l-.98-7.89,5.6-.04.97,5.96c-.21.71-2.57.88-2.21.16Z"/>
        <path d="M123.76,34.82l3.12-.46c-1.98,2.73-4.53,2-6.27-.12l1.47-5.62,4.01.72,1.09,2.41-4.83.7,1.4,2.38Z"/>
        <path d="M266.67,34.05l1.42.78c-2.5,1.73-4.48,1.42-6.53-.42l1.53-5.8,4.02.73,1.09,2.46-4.56.53.83,2.79,2.21-1.07Z"/>
        <path d="M227.76,34.82l3.12-.46c-1.98,2.73-4.53,2-6.27-.12l1.47-5.62,4.01.72,1.09,2.41-4.83.7,1.4,2.38Z"/>
        <path d="M183.76,34.82l3.12-.46c-1.98,2.73-4.53,2-6.27-.12l1.47-5.62,4.01.72,1.09,2.41-4.83.7,1.4,2.38Z"/>
        <path d="M33.67,34.05l1.42.78c-2.5,1.73-4.48,1.42-6.53-.42l1.53-5.8,4.02.73,1.09,2.46-4.56.53.83,2.79,2.21-1.07Z"/>
        <path d="M393.76,34.82l3.12-.46c-1.98,2.73-4.53,2-6.27-.12l1.47-5.62,4.01.72,1.09,2.41-4.83.7,1.4,2.38Z"/>
        <path d="M278.67,34.05l1.42.78c-2.5,1.73-4.48,1.42-6.53-.42l1.53-5.8,4.02.73,1.09,2.46-4.56.53.83,2.79,2.21-1.07Z"/>
        <polygon points="284.15 29.83 284.15 35.11 288.34 34.05 285.55 36.35 281.76 34.71 282.17 29.4 287.78 29.49 290.28 26.26 291.39 29.43 291.32 35.97 289.05 34.91 288.9 29.8 287.42 31.09 284.15 29.83"/>
        <polygon points="272 26.31 272.04 35.47 270.43 36.07 269.96 34.14 270 26.31 272 26.31"/>
        <path d="M223.02,34.59l.82,1.75-2.69-1.41-.58-4.86.21-2.25c.09-.38,2.29-.36,2.46.02l.12,2.29-.36,4.46Z"/>
        <rect x="216.99" y="26.3" width="2.02" height="9.39"/>
        <path d="M76.07,35.58l-1.69.07-.47-4.94-.81-1.19,1.06-2.05,1.36-.52,1.14,2.2c.09-.18-.09.19-.6,1.19v5.24Z"/>
        <rect x="398.99" y="26.3" width="2.02" height="9.39"/>
        <polygon points="151.04 26.53 151 35.69 149 35.69 148.96 27.86 149.43 25.93 151.04 26.53"/>
        <polygon points="27.04 26.53 27 35.69 25 35.69 24.96 27.86 25.43 25.93 27.04 26.53"/>
        <path d="M234.8,34.64s-.89.99-1.59,1.76l-.29-7.42,3.59.09-1.71,5.57Z"/>
        <polygon points="326.23 34.2 322.85 36.44 323.54 27.91 326.23 34.2"/>
        <polygon points="22.83 36.39 20.78 34.81 21.08 29.25 23.12 29.31 22.83 36.39"/>
        <rect x="70" y="29.07" width="1.99" height="6.86"/>
        <path d="M215.03,35.72c.2,0-1.78,0-2.06,0v-6.44s2.04-.01,2.04-.01l.02,6.45Z"/>
        <polygon points="322.07 37.88 308.49 38.05 307.93 37.12 321.51 36.95 322.07 37.88"/>
        <polygon points="104.07 37.87 92.49 38.05 91.93 37.13 103.51 36.95 104.07 37.87"/>
        <polygon points="390.06 37.85 380.49 38.06 379.94 37.15 389.51 36.94 390.06 37.85"/>
        <polygon points="261.06 37.84 252.49 38.06 251.94 37.16 260.51 36.94 261.06 37.84"/>
        <polygon points="61.06 37.84 52.49 38.06 51.94 37.16 60.51 36.94 61.06 37.84"/>
        <polygon points="20.06 37.82 12.49 38.06 11.94 37.18 19.51 36.94 20.06 37.82"/>
        <g>
          <path d="M172.84,38.22c.96-.84,1.67-1.47,1.37-1.2l2.32,1.11.54-1.77-2.91-.27c-1.08-1.29-1.33-4.84-.45-6.99l5.31-.11-.04,9.3c-1.98.55-3.83.55-6.13-.06Z"/>
          <path class="cls-46" d="M177.03,30.86l.03,3.87h-2.12s.03-3.87.03-3.87c-.28-.45,2.34-.46,2.06,0Z"/>
        </g>
        <g>
          <path d="M118.97,36l-5.07-.11c-1.36-2.02-1.1-5.96.56-6.75,1.86-.84,2.81-1.26,2.52-1.13l1.32-2.23.78,2.03-.1,8.19Z"/>
          <polygon class="cls-46" points="117.09 31.95 117.1 34.57 115.42 35.06 114.91 33.05 114.9 30.43 116.58 29.94 117.09 31.95"/>
        </g>
        <g>
          <path d="M408.37,35.53c-3.36.82-2.98.85-3.78,2.98l-1.6.14v-9.67s5.44.12,5.44.12c.38,1.76.35,5.61-.06,6.43Z"/>
          <path class="cls-46" d="M407.05,30.86l-.08,4.1h-1.94s-.08-4.1-.08-4.1c-.24-.44,2.34-.44,2.1,0Z"/>
        </g>
        <g>
          <path d="M67.96,36.01l-5.07-.12c-1.35-2-1.1-5.97.56-6.75,1.86-.84,2.81-1.26,2.52-1.13l1.32-2.23.78,2.07-.11,8.15Z"/>
          <polygon class="cls-46" points="66.09 31.95 66.1 34.57 64.42 35.06 63.91 33.05 63.9 30.43 65.58 29.94 66.09 31.95"/>
        </g>
        <g>
          <path d="M340.97,36l-5.07-.11c-1.36-2.02-1.1-5.96.56-6.75,1.86-.84,2.81-1.26,2.52-1.13l1.32-2.23.78,2.03-.1,8.19Z"/>
          <polygon class="cls-46" points="339.09 31.95 339.1 34.57 337.42 35.06 336.91 33.05 336.9 30.43 338.58 29.94 339.09 31.95"/>
        </g>
        <g>
          <polygon points="166.31 35.96 164.86 34.38 166.58 31.48 164.79 30.5 167.52 28.69 171.2 30.3 170.9 36.02 166.31 35.96"/>
          <path class="cls-46" d="M168.43,32.44c1.79,3.38-1.35,2.96-1.59,1.23,1.1-.85,2.24-1.74,1.59-1.23Z"/>
        </g>
        <g>
          <rect x="343.04" y="29.45" width="5.93" height="6.11"/>
          <polygon class="cls-46" points="347.32 31.23 346.85 34.98 344.92 34.95 345.19 29.61 347.32 31.23"/>
        </g>
        <g>
          <polygon points="111.03 35.65 105.03 35.51 105.04 29.46 110.93 29.42 111.03 35.65"/>
          <polygon class="cls-46" points="109.4 31.39 108.59 35.42 106.6 33.61 107.41 29.58 109.4 31.39"/>
        </g>
      </g>
    </g>
    <g>
      <rect class="cls-32" x="23.15" y="4" width="570.71" height="18"/>
      <g>
        <path d="M335.31,16.65l-1.29-5.88-1.38,5.87c.9,1.85-1.94,1.28-1.66.13l.08-8.89,1.92.98c.13,1.59.13,2.12,2.92,2.06l1.47,5.73c-.26,1.43-2.74,1.72-2.07,0Z"/>
        <path d="M299.36,16.58l-1.45-5.85-1.11,6.28c.56-.41-.81.59-1.73,1.27l-.06-10.37,1.96.9c.15,1.67.17,2.19,2.95,2.11l1.46,5.71c-.26,1.47-2.76,1.86-2.01-.05Z"/>
        <polygon points="373.07 12.73 369.02 13.13 369.02 16.99 373.51 17 374.07 17.82 367.01 18.05 367 8.01 373.51 7.99 374.07 8.76 369.04 9.12 369.02 11.99 372.51 12 373.07 12.73"/>
        <path d="M276.2,16.54l3.82-.1c-1.83,2.05-4.17,1.81-5.96.61v-4.95c2.1-1.61,4.6-2.07,6.41,1.29l-4.21.84-.06,2.31Z"/>
        <polygon points="361.01 16.97 365.51 17 366.07 17.82 359.01 18.06 359 8.08 360.99 8.08 361.01 16.97"/>
        <path d="M329.66,16.18l-3.17,2.14-3.83-1.65c1.52-.52,2.09-.71,1.66-.57l2.21,1.01.54-1.74-2.4-.34-2.32-2.23,3.17-2.14,3.83,1.65c-1.52.52-2.09.71-1.66.57l-2.21-1.01-.54,1.74,2.4.34,2.32,2.23Z"/>
        <path d="M312.94,16.01l.92,2.37-2.7-1.47-.58-4.85.2-2.24c.1-.36,2.34-.37,2.42,0l.25,2.22-.52,3.98Z"/>
        <g>
          <polygon points="293.55 13.88 288.57 14.14 286.49 18.9 285.79 7.98 293.5 8.04 293.55 13.88"/>
          <rect class="cls-32" x="288.01" y="9.01" width="3.98" height="3.98"/>
        </g>
        <g>
          <path d="M270.77,10.37c1.1,2.12,1.43,5.13.55,7.56l-5.41.09.29-10.52,2.78,2.97c-1.74.1-.8.05,1.78-.1Z"/>
          <path class="cls-32" d="M270.06,12.84l-.12,4.25-2.02-.49.07-3.77c-.32-.4,2.32-.38,2.08.01Z"/>
        </g>
        <g>
          <path d="M352.37,17.53c-3.36.82-2.98.85-3.78,2.98l-1.6.14v-9.67s5.44.12,5.44.12c.38,1.76.35,5.61-.06,6.43Z"/>
          <polygon class="cls-32" points="351.13 13.88 350.89 17.1 348.95 16.59 348.94 12.44 350.57 11.94 351.13 13.88"/>
        </g>
        <g>
          <path d="M255.97,18l-5.07-.11c-1.36-2.02-1.1-5.96.56-6.75,1.86-.84,2.81-1.26,2.52-1.13l1.32-2.23.78,2.03-.1,8.19Z"/>
          <polygon class="cls-32" points="254.12 12.28 254.04 16.57 252.42 17.06 251.9 15.07 251.94 12.26 254.12 12.28"/>
        </g>
        <g>
          <path d="M246.93,16.45l-3.71-.59-.65,2.21-1.66-.52.77-1.94,1.13-3.59,1.08-3.16c-.1-.61,2.21-.46,2.3.13l2.67,7.97c.26,1.43-1.95.94-1.93-.51Z"/>
          <polygon class="cls-32" points="246.39 14.45 244.44 15.07 243.61 12.55 245.56 11.93 246.39 14.45"/>
        </g>
        <g>
          <polygon points="264.03 17.65 258.03 17.51 258.04 11.46 263.93 11.42 264.03 17.65"/>
          <polygon class="cls-32" points="262.09 13.95 262.08 16.61 260.08 17.07 259.88 12.48 261.58 11.93 262.09 13.95"/>
        </g>
        <g>
          <rect x="303.04" y="11.45" width="5.93" height="6.11"/>
          <polygon class="cls-32" points="307.09 13.95 307.08 16.61 305.08 17.07 304.88 12.48 306.58 11.93 307.09 13.95"/>
        </g>
        <g>
          <polygon points="321.03 17.65 315.03 17.51 315.04 11.46 320.93 11.42 321.03 17.65"/>
          <path class="cls-32" d="M319.06,12.84l-.12,4.25-2.02-.49.07-3.77c-.32-.4,2.32-.38,2.08.01Z"/>
        </g>
        <g>
          <polygon points="345.03 17.65 339.03 17.51 339.04 11.46 344.93 11.42 345.03 17.65"/>
          <polygon class="cls-32" points="343.32 13.23 342.85 16.98 340.92 16.95 341.19 11.61 343.32 13.23"/>
        </g>
      </g>
    </g>
    <g>
      <polygon class="cls-22" points="22 21.99 4 22.01 4 4 22 4 22 21.99"/>
      <g>
        <polygon points="18.93 14 6.06 14 6.06 11 18.91 11 18.93 14"/>
        <polygon class="cls-46" points="18.07 12.86 7.49 13.05 6.93 12.14 17.51 11.95 18.07 12.86"/>
      </g>
    </g>
    <g>
      <polygon class="cls-2" points="63 372.91 8 373.04 8 46.01 63 46 63 372.91"/>
      <g>
        <path class="cls-22" d="M62.01,57.99v19.02s-25.39-.06-25.39-.06c.42-6.52.55-13.11.4-19.78.97-.73,21.44-.27,24.31-.18.24,0,.46.44.67,1Z"/>
        <rect class="cls-32" x="9.06" y="47" width="52.89" height="8"/>
        <path class="cls-38" d="M51.92,212.95c2.22.56-.43,6.84-2.69,5.12l-2.03,3.35c.71,1.01-.02,2.42-2.22,4.23.46,1.02-.51,1.69-2.9,2,5.32-1.13,7.91-3.45,7.8-6.94l1.35-.52c-.85-1.79,1.56-7.23,3.69-7.29-1.42-2.7,6.12-2.52,7.1-.9l-.02,19.02-24.86-.08c-.24-.26-.43-.52-.45-.79-.15-1.7-.23-18.13.34-18.88.46-.61,14.9-.44,15.22.25.16.35-.03.87-.32,1.44Z"/>
        <path class="cls-38" d="M49.28,191.27c3.1,1.6-.66,9-3.83,7.92-1.73,1.51,1.61,3.86,3.85.99l-.91-1.89c1.82-3.56,3-5.84,3.53-6.84-4.91-3.15,8.19-3.31,10.09-1.47v19.02s-25.39-.06-25.39-.06c.42-6.52.55-13.11.4-19.77.39-.54,11.5-.2,13.33-.05.4.03-.01,1.77-1.07,2.15Z"/>
        <path class="cls-38" d="M53,168c3.13,1.75.13,4.55-2.74,5.35.09,1.31.77,1.97,2.03,2,.56-2.57,1.8-5.01,3.7-7.34.34-1.62,5.26-1.49,6.01,0l-.02,19.02-24.9-.05c-.24-.26-.43-.53-.45-.81-.14-1.8-.24-18.14.37-18.87.49-.59,13.22-.37,15.34-.28.23.01.44.44.65,1Z"/>
        <path class="cls-48" d="M17,101.99c1.11-.06,1.16,2.25,1.08,3.4-.02.23-1.09-3.12.92-3.39.15-.55.31-.98.48-.99,4.41-.24,10.46-.23,14.84.14.24.02.45.52.64,1.16l-.06,18.61-24.92.11c-.19-.3-.34-.61-.34-.91,0-2.51.16-18.52.95-19.1.28-.21,6.47-.41,6.4.96Z"/>
        <path class="cls-43" d="M46.77,234.06c4.16.45.85,6.88-2.47,4.56-.45,2.59-.24,4.9.23,7.57,1.1-.14,1.31.43.63,1.71h.89c1.16-1.45,3.18-1.98,6.07-1.6-1.74-2.28.17-3.65,2.45-1.98-.6-3.57-.79-7.01-.56-10.31,1.08-1.64,6.72-1.55,8.01,0l-.02,19.02-24.86-.08c-.24-.26-.43-.52-.45-.8-.16-1.75-.09-18.13.34-18.98.23-.46,9.5-.6,9.76.89Z"/>
        <path class="cls-43" d="M17.77,146.95c.02,1.87-.14,3.67-.5,5.41,1.36,1.18,1.08,2.49-.83,3.93.98,4.73,3.59,4.21,7.85-1.55l2.27.55c1.71.4,1.76-.4.17-2.41-3.38-1.91-5.27-3.83-5.67-5.76-.78-.46-1.38-1.4-.89-1.86s12.35-.27,14.18-.1c.24.02.43.52.61,1.16l-.06,18.6-24.95.13c.03-6.45.04-13.05.06-19.8.21-.47,10.99-1.05,7.76,1.71Z"/>
        <path class="cls-22" d="M31,331c.11-1.62,3.7-1.41,3.91.3l.09,17.69H9.99c-.19-.3-.34-.6-.34-.91.01-2.33.15-17.49,1.02-17.71.37-.09.83.21,1.32.63l2,.86v12.13s14.95,0,14.95,0l.05-11.61,2-1.38Z"/>
        <polygon class="cls-22" points="61.38 352.02 8.94 351.96 8.94 350.04 61.38 349.98 61.38 352.02"/>
        <path class="cls-46" d="M34.96,146.31l-13.1-.33-.8,1.13c-1.67,2.54-2.77,2.49-3.29-.15l-.4-1.05-6.37.17-.02,17.65-1.03,1.32-.99-.89.05-20.15h25.85s.1,2.31.1,2.31Z"/>
        <path class="cls-46" d="M62.01,189.99h-9.86s-.23,1.47-.23,1.47c-.8,2.72-1.97,2.55-2.64-.19l-.47-1.28-10.8.03-.03,17.73-1.36,1.19-.65-1.87.06-19.08h25.84s.15,1.99.15,1.99Z"/>
        <path class="cls-46" d="M62.01,211.99l-5.37-.02-1.73.92c-1,1.72-1.98,1.64-3,.05l-1.21-.93-12.69-.02-.04,17.75-.85,1.18-1.13-.11v-20.83s25.86,0,25.86,0l.15,2Z"/>
        <path class="cls-46" d="M62.01,167.99h-6.01c-.08,2.89-2.35,2.71-3,0l-14.99.02-.03,17.74-.89,1.2-1.13-.76.05-20.2h25.84s.15,2,.15,2Z"/>
        <path class="cls-46" d="M62.01,233.99h-8.01c-.3.88-.63.86-1,0-.02,3.01-5.66,2.92-6.23.07l-8.75-.04-.03,17.75-.86,1.17-1.13-.11v-20.83s25.86,0,25.86,0l.15,2Z"/>
        <path class="cls-46" d="M34.96,102.31l-15.96-.31c-.33,2.65-1.25,2.54-2,0l-5.99.06-.03,17.68-.99,1.3-.99-.22v-20.81s25.87,0,25.87,0l.1,2.31Z"/>
        <polygon class="cls-46" points="62.01 57.99 38.02 58.05 37.98 75.75 36.62 76.95 35.97 75.08 36.02 56 61.86 56 62.01 57.99"/>
        <path class="cls-46" d="M34.92,331.3l-3.91-.3c-.1.77-.3,1.88-.88,2-1.36.27-15.41.29-16.72,0l-1.41-2-1.02.87.02,15.87-1.01,1.27-.99-.19v-19.81s25.87,0,25.87,0l.04,2.3Z"/>
        <path class="cls-22" d="M44.03,355.23l-.1,15.73-15.97.07c-.59-1.28-.49-3.16,1.1-2.99l1.08-2,8.87-.33v-9.36s2.01-1.35,2.01-1.35c.03-1.6,2.9-1.36,3.03.24Z"/>
        <path class="cls-22" d="M62.01,355v15.99s-16.45.04-16.45.04c-.26-2.22.23-3.21,1.49-2.99l1.08-2,8.87-.33v-9.36s2.01-1.35,2.01-1.35c-.11-1.58,2.64-1.45,3,0Z"/>
        <polygon class="cls-46" points="44.03 355.23 41 355 39.91 357 31 357.29 31.04 366.67 29.05 368.04 27.95 371.03 26.96 370.18 27.02 353 43.88 353 44.03 355.23"/>
        <polygon class="cls-46" points="62.01 355 59 355 57.91 357 49 357.29 49.04 366.67 47.05 368.04 45.56 371.03 44.96 369.08 45.02 353.01 61.88 353 62.01 355"/>
        <polygon class="cls-46" points="9.93 370.11 24.99 369.95 25 354.49 25.91 353.92 26.03 370.99 10.48 371.01 9.93 370.11"/>
        <g>
          <path class="cls-12" d="M62.01,80.23v18.78s-25.39-.06-25.39-.06c.43-6.5.56-13.07.4-19.72.98-.73,21.47-.23,24.32-.12.24,0,.45.5.67,1.12Z"/>
          <polygon class="cls-46" points="62.01 80.23 38.02 80.12 37.98 97.76 36.62 98.95 35.97 97.08 36.02 78 61.86 78 62.01 80.23"/>
          <polygon points="56.08 94.56 54.09 95.7 48.18 89.55 49.59 88.17 56.08 94.56"/>
        </g>
        <g>
          <path class="cls-12" d="M34.96,124.31l-.06,18.61-24.92.11c0-6.29,0-12.88.02-19.79.97-.73,21.38-.22,24.33-.09.22,0,.43.51.63,1.16Z"/>
          <polygon class="cls-46" points="34.96 124.31 23.26 124.09 21.79 125.53 20.53 124.58 11.01 124.01 10.98 141.71 9.99 143.03 9 142.81 9.01 122 34.87 122 34.96 124.31"/>
          <path d="M20.86,128.52c-.01.69-.32,2.03-.65.2l-1.35-2.12,1.86-1.81.14,3.73Z"/>
          <path d="M25.26,125.79l-2.11,2.35c.67,2.5.54,2.01-.01-.05l.15-3.17,2.73.39.76.67c.72,1.68.68,3.31-.29,5.24l-.61-4.71-.62-.72Z"/>
        </g>
        <g>
          <path class="cls-11" d="M34,56.99c.24,1.66,1.25,18.82.49,19.44-.96.77-21.92-.15-24.5-.43l.02-19h23.99Z"/>
          <g>
            <polygon class="cls-46" points="9.99 76 33.99 75.99 34 56.99 35 57.18 34.99 77 10.19 77 9.99 76"/>
            <path class="cls-46" d="M18.16,61.34l-3.23,1.04c-.38,1.29-.91,2.39-1.17-.93l4.4-.12Z"/>
            <path class="cls-46" d="M32.36,61.43c-.26,2.83-.84,2.66-1.25.93l-2.63-.4-.53-.85,4.4.33Z"/>
            <path class="cls-46" d="M16.27,72.27c1.3.02,2.47.35-.32,1.07-1.14-.5-1.55-.81-2-3.08l2.32,2.01Z"/>
            <path class="cls-46" d="M32.37,72.61l-4.63.19,3.3-1.27c.45-1.41,1.03-1.94,1.33,1.08Z"/>
          </g>
        </g>
        <g>
          <path class="cls-12" d="M34.96,168.31l-.06,18.6-24.95.13c.03-6.5.05-13.14.06-19.93.97-.73,21.46-.1,24.29.03.24.01.45.51.66,1.16Z"/>
          <polygon class="cls-46" points="34.96 168.31 11.02 168 10.98 185.73 9.95 187.05 8.97 186.15 9.02 166 34.86 166 34.96 168.31"/>
          <polygon points="28.66 184.03 14.96 170.52 15.34 168.97 29.04 182.48 28.66 184.03"/>
        </g>
        <g>
          <path class="cls-12" d="M62.01,101.99l-.02,19.02-24.9-.05c-.24-.26-.43-.53-.45-.81-.13-1.62-.39-18.44.37-19.01.97-.73,21.45-.23,24.32-.13.24,0,.46.44.67,1Z"/>
          <polygon class="cls-46" points="62.01 101.99 38.02 102.01 37.98 119.75 37.09 120.95 35.97 120.2 36.02 100 61.86 100 62.01 101.99"/>
          <polygon points="52.3 116.88 45.7 116.88 48 115.81 47.95 104.69 43.17 106.58 43.05 104.01 54.95 104 54.88 106.67 50.07 104.64 50 115.81 52.3 116.88"/>
        </g>
        <path d="M51.22,220.19l-.09,3.09-4.09,4.24-4.97.14,2.9-2c2.58-2.32,3.31-3.73,2.22-4.23l.27-1.97,1.76-1.38c1.36-.03,1.95.77,2,2.11Z"/>
        <polygon class="cls-22" points="54.91 212.89 52.25 219.19 51.22 220.19 48.98 219.93 49.22 218.07 50.57 216.61 51.92 212.95 53.31 211.88 54.91 212.89"/>
        <polygon class="cls-22" points="44.97 225.65 47.19 221.42 48.62 220.97 49 222.71 44.97 225.65"/>
        <path class="cls-22" d="M51.92,191.46l1.2,1.12-1.05,2.34-1.78,4.31-1,.96c-2.13,3.45-5.13,2.95-3.85-.99l2.7-4.4.61-2.01.52-1.51,2.64.19Z"/>
        <polygon points="49.29 200.18 48.88 201.73 44.15 206.18 43.94 199.06 45.44 199.19 47.25 201.23 49.29 200.18"/>
        <g>
          <path class="cls-38" d="M27,212c3.52,1.26-3.41,7.05-5.89,7.28.33,1.4,1.02,2.09,2.06,2.06,0-2.6,3.42-6.78,5.47-8.88.3-.31.8-.41,1.36-.47.33-1.59,4.67-1.39,4.96.31l-.06,18.61-24.92.11c0-6.49,0-13.12.02-19.9.54-.61,14.09-.25,16.33-.14.24.01.45.44.66,1Z"/>
          <path class="cls-46" d="M34.96,212.31l-4.96-.31c-.18,2.54-2.42,2.74-3,0l-15.99.02-.04,17.72-.99,1.3-.99-.22v-20.81s25.87,0,25.87,0l.1,2.31Z"/>
          <path d="M30,212l-.13,2.67-6.7,6.67c-1.07-.11-1.75-.8-2.06-2.06l.49-1.47,5.24-5.08.15-.72h3Z"/>
          <polygon class="cls-22" points="23.17 221.34 21.95 223.26 18.14 226.64 16.01 225.57 17.11 224.03 21.11 219.27 22.92 218.98 23.17 221.34"/>
          <path d="M27.08,227.84c-1.81.39-3.31-1.1-2.91-2.91l2.91,2.91Z"/>
        </g>
        <path d="M56,168l1.69,2.56-3.39,3.01-.5,2.47-1.51-.71c-1.89,2.19-3.45.4-2.03-2l-1.31-2.2,2.72-.24,1.33-2.91h3Z"/>
        <polygon class="cls-22" points="52.3 175.34 45.82 182.3 42.84 181.56 47.95 175.87 50.26 173.35 52.3 175.34"/>
        <g>
          <path class="cls-48" d="M34.96,80.31l-.06,18.61-24.92.11c0-6.5,0-13.14.02-19.92.97-.73,21.46-.1,24.3.04.24.01.45.52.66,1.16Z"/>
          <polygon class="cls-46" points="34.96 80.31 11.02 80 10.98 97.73 9.99 99.03 9 98.81 9.01 78 34.87 78 34.96 80.31"/>
          <path class="cls-22" d="M26.75,82.19l4.18,2.97-4.01,2.86-3.94.97-2.93,1.24-2.87-.27c-1.27.36-1.69-.72-1.97-2.04l.11-2.62,2.62-1.96,2.27-1.13c.93-1.05,5.01-.91,6.52-.02Z"/>
          <path d="M17.19,89.97l.7,2.46c-.1,1.54-.46,1.62-.91.22l-3.39-2.72,1.63-2.01,2.85.21-.88,1.83Z"/>
          <polygon points="26.75 82.19 20.23 82.21 20.09 81 26.91 81 26.75 82.19"/>
        </g>
        <path class="cls-22" d="M44.72,241.06c-1.72.38-1.84-.39-.16-1.18l.16,1.18Z"/>
        <path class="cls-22" d="M53,233.99c.92,3.23,1.44,6.67,1.56,10.33l-2.45,1.98c-2.38-.21-4.4.32-6.07,1.6l-.78,1.93-2.7-.19,1.88-2.15.07-1.29c-.87-2.41-.81-4.12.19-5.14l-.16-1.18c-.54.1-.63-.32-.26-1.26l2.36-2.22.12-2.34,6.23-.07Z"/>
        <polygon points="44.29 238.62 44.55 239.88 44.72 241.06 44.99 242.08 44.52 246.19 41.42 239.03 43.58 239.91 44.29 238.62"/>
        <path d="M44.72,241.06l-.16-1.18.16,1.18Z"/>
        <polygon points="52.11 246.29 50 246.86 46.05 247.89 48.24 242.84 50.01 244.5 47.86 245.71 52.11 246.29"/>
        <polygon points="54.56 244.31 54.16 240.72 53.15 238.63 53 233.99 54 234 54.57 238.77 54.56 244.31"/>
        <path class="cls-22" d="M21.06,147.11c.05,1.66,1.59,3.2,4.64,4.62,2,1.53,2.29,2.71.86,3.55l-1.09,1.11-4.6,4.86-2.39.92-1.95-1.62-2.73-2.84.72-2.26,2.76-3.09c.34-1.75.5-3.56.5-5.41l3.29.15Z"/>
        <path d="M26.56,155.28l-.76-1.97-3.44-3.53-.93,3.44-.49-3.53-.93-1.22,1.06-1.37.83,1.14,1.76,1.92,2.57.64,4.23,4.16c-.43,2.82-1.53,5.11-3.09,5.97l-.81-5.64Z"/>
        <polygon points="17.27 152.36 16.79 148.73 17.77 146.95 18.72 150.61 17.27 152.36"/>
        <g>
          <polygon class="cls-22" points="62 326.97 9 327.02 9 276 62 276 62 326.97"/>
          <path d="M48.98,284.13l-2.61,2.72-2.39-2.37,2.7-2.61.78,2.18c1.88.11,3.43.2,1.52.09Z"/>
          <path d="M53.9,289.57l-2.37,2.45-2.44-2.44,2.41-2c0-2.2,0-2.19,0,0l2.39,2Z"/>
          <g>
            <polygon points="55 323 26.02 323 26 310.02 14 309.98 14 282 41.98 282 42.02 294 55 294.02 55 323"/>
            <polygon class="cls-46" points="27.03 322 26.99 310.01 41.99 309.99 42.01 294.99 54 295.03 54 322 27.03 322"/>
          </g>
          <g>
            <path d="M23.05,323.01l-7.54-.14-2.06-3.19-.6-6.75,6.62.35c1.06.93,1.22,1.05,3.28,2.03l.3,7.7Z"/>
            <polygon class="cls-46" points="21.99 321.96 16.5 322.09 15.9 320.35 18.68 320.19 20.19 318.68 20.35 315.91 22.07 316.45 21.99 321.96"/>
          </g>
        </g>
        <g>
          <path class="cls-48" d="M34.96,190.31l-.05,18.6-25.33.14c.46-6.57.61-13.21.43-19.93.97-.73,21.45-.1,24.29.03.24.01.45.52.66,1.16Z"/>
          <polygon class="cls-46" points="34.96 190.31 11.02 190 10.98 207.73 9.58 209.05 8.97 207.07 9.02 188 34.86 188 34.96 190.31"/>
          <path class="cls-22" d="M29.29,197.28l-5.08,4.95c-.51.58-8.03-.36-8.37-.72-.48-.5.08-1.58.64-2.28l4.86-4.92c2.11-1.21,9.5-2.32,7.96,2.98Z"/>
          <polygon points="29.29 197.28 27.89 193.87 21.33 194.3 21.1 193 29.96 193 29.99 196.81 29.29 197.28"/>
          <g>
            <polygon points="24.21 202.23 22.69 204.05 13.9 203.84 14.28 199.88 16.48 199.22 16.73 200.03 22.71 200.01 24.21 202.23"/>
            <path class="cls-22" d="M21.72,200.97c0-.2,0,1.78,0,2.06h-6.44s-.01-2.04-.01-2.04l6.45-.02Z"/>
          </g>
        </g>
        <g>
          <path d="M19,102l.07,2.96,7.83.17.37,7.95c3.25-1.42,3.84,2.47.69,1.87l-1.26,2.58c.43-.17-1.07.42-1.35.53l-.32-2.87-7.91-.26-.4-8.02c-3.23,1.67-4.06-2.87-.41-1.8l.69-3.11h2Z"/>
          <polygon class="cls-22" points="25.53 111.34 23.52 113.54 19.82 112.65 18.47 108.63 20.44 106.6 24.18 107.36 25.53 111.34"/>
        </g>
        <g>
          <path class="cls-53" d="M34.96,234.31l-.06,18.61-24.92.11c0-6.5,0-13.14.02-19.92.97-.73,21.46-.1,24.3.04.24.01.45.52.66,1.16Z"/>
          <polygon class="cls-46" points="34.96 234.31 11.02 234 10.98 251.73 9.99 253.03 9 252.81 9.01 232 34.87 232 34.96 234.31"/>
          <g>
            <path d="M27.92,244.04l1.14.43-.23,1.89c-1.24.46-1.04,1.4.61,2.83l-1.23.82h-13.28s-1.19-4.46-1.19-4.46l2.28-1.58c3.97.49,7.97.37,11.91.06Z"/>
            <path class="cls-22" d="M28.83,246.36l1.58,1.18-.97,1.65-6.69-.46c1.86-2.14,3.81-2.95,6.09-2.37Z"/>
            <path class="cls-22" d="M21.27,248.54l-6.28.66.22-3.67c2.26.54,3.17.76,6.06,3Z"/>
          </g>
          <g>
            <path d="M26.96,243.08c-.26,1.89-7.07,1.45-9.54,1.03-.18-.03-.29-.46-.39-1l.5-1.17,1.92-.24c-1.37-2.48-1.62-4.55-.97-6.64l6.94-.09.73,4.45-2.36,2.36,2.75.25.42,1.06Z"/>
            <polygon class="cls-22" points="26.96 243.08 27.92 244.04 27.84 245 16.16 245 16.01 243.98 17.03 243.11 19.85 243.65 24.15 243.65 26.96 243.08"/>
            <polygon class="cls-22" points="25.16 239.94 19.31 240.08 19.07 237.5 21.9 236.39 24.52 237.1 25.16 239.94"/>
          </g>
        </g>
        <g>
          <path class="cls-22" d="M62.01,145.99v19.02s-25.39-.06-25.39-.06c.42-6.54.56-13.16.42-19.84.97-.73,21.43-.22,24.3-.12.24,0,.46.44.67,1Z"/>
          <polygon class="cls-46" points="62.01 145.99 38.05 146.01 37.97 163.75 36.62 164.95 35.97 163.08 36.02 144 61.86 144 62.01 145.99"/>
          <g>
            <polygon points="58.99 160 39.05 160 38.9 149.09 58.98 148.96 58.99 160"/>
            <path class="cls-42" d="M49,150c3.1.48,2.96,8.26,0,9h-5s0-9.01,0-9.01h5Z"/>
            <path class="cls-22" d="M54,150c3.09.48,2.96,8.26,0,9.01h-5s0-9,0-9h5Z"/>
            <polygon class="cls-46" points="54 159 54 150 58 150.03 58 158.97 54 159"/>
          </g>
        </g>
        <g>
          <polygon points="31 331 30.99 346 12.01 346 12 331 31 331"/>
          <rect class="cls-22" x="13.01" y="332" width="16.98" height="12.99"/>
        </g>
        <g>
          <polygon class="cls-46" points="36.99 348 60.99 347.99 61 329.99 62 330.18 61.99 349 37.19 349 36.99 348"/>
          <g>
            <path class="cls-11" d="M61,329.99c.27,1.56,1.23,17.87.49,18.44-.98.75-21.91-.12-24.5-.43l.02-18h23.99Z"/>
            <polygon class="cls-46" points="59 347 40.04 347 39.79 337.02 40.1 332 59.03 332 59 347"/>
            <polygon class="cls-11" points="42.38 336 42.39 334.94 43.87 334.21 43.02 335.52 43.74 336.12 43.07 337.54 43.5 338.02 45.48 337.85 47.66 335.1 52.37 335.79 54.33 339.21 55.99 337.5 55.26 336.88 55.93 335.46 55.2 334.77 55.78 334.27 56.74 335.12 56.07 336.54 56.72 337.09 56.16 338.57 56.73 339.51 56 340.5 56.74 341.12 56.07 342.54 56.61 343 56.62 344.05 54.92 345.03 55.96 343.48 55.26 342.89 55.93 341.46 55.5 340.99 53.28 341.09 52.22 343.44 47.55 343.85 45.47 341.03 42.99 341.34 43.74 342.12 43.07 343.54 43.8 344.23 43.22 344.73 42.26 343.88 42.93 342.46 42.32 341.96 42.75 338.47 42.26 337.89 42.93 336.46 42.38 336"/>
          </g>
        </g>
        <g>
          <polygon points="41 355 40.99 367.99 29.05 368.04 28.99 355.01 41 355"/>
          <rect class="cls-22" x="30.01" y="358.01" width="9.98" height="8.99"/>
          <polygon class="cls-22" points="40.06 356.85 30.49 357.06 29.94 356.15 39.51 355.94 40.06 356.85"/>
        </g>
        <g>
          <polygon points="59 355 58.99 367.99 47.05 368.04 46.99 355.01 59 355"/>
          <rect class="cls-22" x="48.01" y="356.01" width="9.99" height="10.99"/>
        </g>
        <g>
          <polygon class="cls-46" points="23.99 368.99 12.02 369 11.9 355.96 24 356 23.99 368.99"/>
          <polygon class="cls-11" points="23.06 357.82 15.49 358.06 14.94 357.18 22.51 356.94 23.06 357.82"/>
          <g>
            <rect class="cls-11" x="13.01" y="359.01" width="9.98" height="8.99"/>
            <polygon class="cls-46" points="22.1 367.06 16.54 366.84 14.17 364.44 13.98 359.97 19.46 360.14 21.8 362.57 22.1 367.06"/>
            <polygon class="cls-11" points="20.17 360.95 17.1 365.2 13.98 361.41 20.17 360.95"/>
            <path class="cls-11" d="M21.37,365.61l-4.63.19,3.3-1.27c.45-1.41,1.03-1.94,1.33,1.08Z"/>
          </g>
        </g>
        <g>
          <path class="cls-38" d="M62.01,256.24l-.02,18.75-25.4.03c.45-6.56.6-13.19.43-19.9.98-.73,21.48-.14,24.33,0,.24.01.45.5.66,1.12Z"/>
          <polygon class="cls-46" points="62.01 256.24 38.02 256.01 37.98 273.73 36.59 275.02 35.97 273.07 36.02 254 61.86 254 62.01 256.24"/>
          <path d="M43.71,266.77l-2.83-2.64,1.34-6.37c2.88-.39,4.18-.49,6.57-.27,1.7,1.67,2.42,4.52,2.07,6.7l-2.52,2.58h-4.62Z"/>
        </g>
        <g>
          <path class="cls-5" d="M62.01,123.99l-.02,19.02-24.9-.05c-.24-.25-.44-.5-.46-.77-.14-1.83,0-17.91.38-18.76.5-1.11,21.46-.53,24.34-.42.23,0,.45.44.66,1Z"/>
          <polygon class="cls-46" points="62.01 123.99 43 124.08 38.01 124.14 37.98 141.74 37.09 142.95 35.97 142.2 36.02 122 61.86 122 62.01 123.99"/>
          <path class="cls-22" d="M50.14,132.37c1.83,2.14.84,3.09-1.67,1.93l-3.9,1.19-2.54-2.95-.07-2.91,1.99-3.47,4.42.42,1.62,1.14,1.43,2.78-1.27,1.86Z"/>
          <polygon points="48.47 134.3 50.14 132.37 55.89 138.5 54.56 139.9 48.47 134.3"/>
        </g>
        <g>
          <path class="cls-5" d="M34.93,256.32l.08,18.67-25.05.03c.03-6.5.05-13.15.06-19.93.97-.73,21.7-.06,24.29.06.23.01.43.52.63,1.16Z"/>
          <polygon class="cls-46" points="34.93 256.32 22.27 256.14 20.8 256.2 11.01 255.96 10.98 273.74 9.95 275.02 8.97 274.15 9.02 254 34.87 254 34.93 256.32"/>
          <polygon class="cls-22" points="24.24 271.84 18.46 271.66 16.4 268.87 19.56 261.74 21.54 258.5 23.1 259.57 23.8 262.33 25.95 264.75 27.66 268.05 24.24 271.84"/>
          <path d="M24.24,271.84l-5.79-.19,5.79.19Z"/>
        </g>
      </g>
    </g>
    <g>
      <rect x="404" y="297" width="225.99" height="148"/>
      <g>
        <polygon class="cls-22" points="626 425.97 611 425.97 611 355.04 626 354.98 626 425.97"/>
        <polygon class="cls-22" points="616.12 443.99 419.5 444.01 418.88 443.01 615.5 442.99 616.12 443.99"/>
        <polygon class="cls-22" points="616.12 298.99 419.5 299.01 418.88 298.01 615.5 297.99 616.12 298.99"/>
        <polygon class="cls-22" points="628.02 431.1 627.99 312.5 628.98 311.9 629.01 430.5 628.02 431.1"/>
        <polygon class="cls-22" points="405.02 431.1 404.99 312.5 405.98 311.9 406.01 430.5 405.02 431.1"/>
        <polygon class="cls-22" points="406.01 299.01 406 310.52 405.12 311.08 404.96 297.96 418.08 298.12 417.52 299 406.01 299.01"/>
        <polygon class="cls-22" points="628.13 311.07 627.94 299.01 617.49 299 616.93 298.12 628.99 297.96 629.01 310.52 628.13 311.07"/>
        <polygon class="cls-22" points="418.07 443.88 405.01 444.04 404.99 432.48 405.86 431.93 406.07 442.99 417.51 443 418.07 443.88"/>
        <polygon class="cls-22" points="616.93 443.14 627.99 442.93 628 432.49 628.87 431.93 629.04 443.99 617.48 444.01 616.93 443.14"/>
        <g>
          <path class="cls-32" d="M428.99,311c-3.13-.57-2.98-9.16,0-10-.87-.28-.86-.61,0-1h185.89s0,11,0,11h-185.89Z"/>
          <g>
            <polygon points="505.91 305.42 504.48 308.36 508.15 309.63 504.01 310.09 504 300.92 508.29 301.37 505.18 302.18 505.4 305.39 505.91 305.42"/>
            <polygon points="533.94 306.98 531.15 308.73 530.95 304.83 536.55 305.49 533.94 306.98"/>
            <polygon points="526.62 305.57 525.6 310.04 524.9 309.5 525.3 300.88 526.62 305.57"/>
            <polygon points="519.06 310.21 517.21 308.66 518.7 303.85 519.06 310.21"/>
            <path d="M512.17,304.17l-.2,5.33-.67.56-.47-4.13.59-1.94c.24.06,2.49.59.75.18Z"/>
            <polygon points="529.24 310.07 528.93 305.5 529.76 304.93 530.07 309.5 529.24 310.07"/>
            <polygon points="514.24 309.07 513.93 304.5 514.76 303.93 515.07 308.5 514.24 309.07"/>
          </g>
        </g>
        <g>
          <path class="cls-24" d="M611.03,441.77c.59-4.56.75-9.19.47-13.9l14.14-.41.42,14.61-15.03-.3Z"/>
          <polygon class="cls-46" points="625.64 427.46 611.99 428.22 612.08 439.12 611.03 441.77 611.01 427.01 625.64 427.46"/>
          <path class="cls-42" d="M621.63,433.99c-.83,1.38-2.44,3.15-3.94,3.1l-3.4-3.33,2.37-3.4c-1.23.25,1.23-.25,1.96-.4l.54,2.67,2.48,1.36Z"/>
          <polygon class="cls-46" points="617.69 437.09 621.63 433.99 621.5 435.14 618.39 438.05 617.69 437.09"/>
        </g>
        <g>
          <path class="cls-24" d="M610.84,353.25c.71-4.39.93-8.93.67-13.61,4.88.15,9.52-.2,13.93-1.03l.64,2.32-.21,12.95-13.01.22-2.01-.84Z"/>
          <polygon class="cls-46" points="625.44 338.61 624.78 339.99 612.01 340.01 611.99 352.81 610.84 353.25 611.01 339.01 625.44 338.61"/>
          <path class="cls-42" d="M621.53,346.28l-1.41.68c-.65,2.44-1.81,3.15-3.49,2.13l-2.49-3.68,3.41-3.46,3.99,4.33Z"/>
          <polygon class="cls-46" points="621.53 346.28 620.22 347.26 619.49 350.61 616.63 349.08 618.65 349.01 619.04 346.36 621.53 346.28"/>
        </g>
        <g>
          <path class="cls-45" d="M429,301v10s-16.99-.06-16.99-.06l-3.99-.19c-.55-1.02-.97-9.96-.5-10.18.94-.44,18.26-.12,20.83-.07.22,0,.43.22.65.5Z"/>
          <polygon class="cls-46" points="428.99 300 429 301 408.02 301 408.02 310.75 406.99 310.88 407.03 300 428.99 300"/>
          <g>
            <path d="M425.39,306.95l-14.34.07-.05-2.97,12.9-.18s.45.92,1.49,3.07Z"/>
            <polygon class="cls-46" points="424.07 305.87 412.49 306.05 411.93 305.13 423.51 304.95 424.07 305.87"/>
          </g>
        </g>
        <g>
          <polygon class="cls-22" points="610.03 338.97 609.93 371.73 609.92 373.26 609.97 405.72 609.95 407.28 609.99 442.01 407.06 441.99 407.07 439.72 407.03 407.28 407.05 405.72 407.04 373.28 407.08 371.74 406.97 338.97 439.74 339.08 441.28 339.04 473.72 339.04 475.28 339.04 507.72 339.04 509.28 339.04 541.72 339.04 543.28 339.04 575.72 339.04 577.26 339.08 610.03 338.97"/>
          <g>
            <path class="cls-13" d="M599.85,348.4l1.15.47c3.33,3.59,3.37,9.7-.06,13.26l-.81.81c-3.63,3.38-9.57,3.51-13.22,0l-.84-.84c-2.19-2.66-3.47-5.79-2.02-8.98.14-1.33.83-2.72,2.08-4.17l.81-.82c1.4-1.13,2.81-1.9,4.23-2.3,2.82-.49,7.04-.32,8.68,2.58Z"/>
            <path class="cls-47" d="M561.53,362.16c-5.82-.16-8.47-2.85-8.75-8.4l5.86-5.25c5.32,1.24,7.32,3.66,7.53,8.61l-4.64,5.04Z"/>
            <path class="cls-15" d="M530.78,356.54c-2.91,2.41-3.74,2.96-6.22,3.77-2.24-1.75-3.12-3-3.87-5.82l4.75-3.88c2.86,1.33,3.54,2.02,5.34,5.93Z"/>
            <polygon class="cls-30" points="489.73 352.64 493.88 353.8 493.3 357.85 489.14 357.3 489.73 352.64"/>
            <polygon class="cls-43" points="600.12 362.93 596.86 366 590.13 366 586.91 362.93 590.95 364.82 596.85 364.49 600.12 362.93"/>
            <polygon class="cls-43" points="600.93 362.12 602.6 358.8 602.6 352.21 601 348.87 603.99 352.16 604 358.85 600.93 362.12"/>
            <path class="cls-43" d="M599.85,348.4l-1.56-1.24-7.12-1.34c-.9-.01-.94-.31-.17-.86l5.63.16,2.14,1.09,1.08,2.19Z"/>
            <path class="cls-43" d="M586.07,362.09l-3.06-3.23-.02-5.88c.41-.83.76-.78,1.06.13l.11,4.44,1.91,4.54Z"/>
            <polygon class="cls-19" points="420.77 388.86 424.99 388.26 424.36 391.31 420.77 388.86"/>
            <polygon class="cls-43" points="584.05 353.11 582.99 352.99 583.55 351.27 586.12 348.94 585.43 351.41 584.05 353.11"/>
            <polygon class="cls-43" points="591.17 345.82 589.47 347.45 586.94 348.12 589.27 345.55 591 344.96 591.17 345.82"/>
            <g>
              <path class="cls-22" d="M426.71,410.2l2.7,1.46,3.65,2.23,1.79,1.94,1.79,2.59.98,1.38c.32,2.51.25,4.98-.21,7.42l-1.11,4.01-5.06,5.03-3.98,1.32c-2.52.33-5.02.3-7.5-.11l-5.08-1.86-1.94-3.02-1.57-1.41.13-2.59-1.98-1.43c-.31-2.58-.07-4.97.74-7.15.31-.21,1.21-.84.9-.62l1.69-3.86,2.88-2.78,2.64-1.37,2.08-1.2c.94-1.03,4.99-.9,6.48,0Z"/>
              <g>
                <polygon points="409.31 427.17 408.72 421.62 410.05 420.03 409.31 427.17"/>
                <polygon points="437.41 427.22 437.61 419.8 438.23 425.08 437.41 427.22"/>
                <polygon points="427.25 437.58 421.95 438.24 419.76 437.47 427.25 437.58"/>
                <polygon points="426.71 410.2 420.23 410.2 420.09 409 426.91 409 426.71 410.2"/>
                <path d="M426.76,421.54c-.83-.82-.45-.44.93.92.57-.31-.11.06-2.17,1.19l-1.04-2.42,2.66-1.48c1.82.45,2.49,1.13-.38,1.79Z"/>
              </g>
            </g>
            <g>
              <path class="cls-22" d="M494.71,410.2l2.7,1.46,3.65,2.23,1.79,1.94,1.79,2.59.98,1.38c.32,2.51.25,4.98-.21,7.42l-1.11,4.01-5.06,5.03-3.98,1.32c-2.52.33-5.02.3-7.5-.11l-5.08-1.86-1.94-3.02-1.57-1.41.13-2.59-1.98-1.43c-.31-2.58-.07-4.97.74-7.15.31-.21,1.21-.84.9-.62l1.69-3.86,2.88-2.78,2.64-1.37,2.08-1.2c.98-1,5.04-.96,6.48,0Z"/>
              <g>
                <polygon points="477.31 427.17 476.72 421.62 478.05 420.03 477.31 427.17"/>
                <polygon points="505.41 427.22 505.61 419.8 506.23 425.08 505.41 427.22"/>
                <polygon points="495.25 437.58 489.95 438.24 487.76 437.47 495.25 437.58"/>
                <polygon points="494.71 410.2 488.23 410.2 488.06 409.04 494.44 408.93 494.71 410.2"/>
                <polygon points="491.22 425.4 487.73 426.32 487.89 421.01 489.7 422.03 490.76 422.27 491.22 425.4"/>
                <path d="M494.77,421.58l1.44.8-2.7,1.27-1.03-2.43,2.68-1.44c1.98.48,2.15,1.13-.4,1.81Z"/>
              </g>
            </g>
            <g>
              <path class="cls-22" d="M460.71,410.2l2.7,1.46,3.65,2.23,1.79,1.94,1.79,2.59.98,1.38c.32,2.51.25,4.98-.21,7.42l-1.11,4.01-5.06,5.03-3.98,1.32c-2.52.33-5.02.3-7.5-.11l-5.08-1.86-1.94-3.02-1.57-1.41.13-2.59-1.98-1.43c-.31-2.58-.07-4.97.74-7.15.31-.21,1.21-.84.9-.62l1.69-3.86,2.88-2.78,2.64-1.37,2.08-1.2c.94-1.03,4.99-.9,6.48,0Z"/>
              <g>
                <polygon points="443.31 427.17 442.72 421.62 444.05 420.03 443.31 427.17"/>
                <polygon points="471.41 427.22 471.61 419.8 472.23 425.08 471.41 427.22"/>
                <polygon points="461.25 437.58 455.95 438.24 453.76 437.47 461.25 437.58"/>
                <polygon points="460.71 410.2 454.23 410.2 454.09 409 460.91 409 460.71 410.2"/>
                <path d="M456.68,426.81l-1.03-1.61-1.73-.66.64-1.99,2.05-2.81.94,4.48c.15-.46-.02.05-.87,2.59Z"/>
                <path d="M460.77,421.58l1.44.8-2.7,1.27-1.03-2.43,2.68-1.44c1.98.48,2.15,1.13-.4,1.81Z"/>
              </g>
            </g>
            <g>
              <path class="cls-22" d="M528.71,410.2l2.7,1.46,3.65,2.23,1.79,1.94,1.79,2.59.98,1.38c.32,2.51.25,4.98-.21,7.42l-1.11,4.01-5.06,5.03-3.98,1.32c-2.52.33-5.02.3-7.5-.11l-5.08-1.86-1.94-3.02-1.57-1.41.13-2.59-1.98-1.43c-.3-2.57-.08-4.97.65-7.2l.95-.58,1.73-3.85,2.86-2.78,2.64-1.37,2.08-1.2c.94-1.03,4.99-.9,6.48,0Z"/>
              <g>
                <polygon points="528.71 410.2 522.23 410.2 522.09 409 528.91 409 528.71 410.2"/>
                <polygon points="511.31 427.17 510.74 421.67 511.96 419.97 511.31 427.17"/>
                <polygon points="539.41 427.22 539.61 419.8 540.23 425.08 539.41 427.22"/>
                <polygon points="529.25 437.58 523.95 438.24 521.76 437.47 529.25 437.58"/>
                <path d="M521.35,427.07l-.87-5.46c-.51.67.33-.44,1.28-1.7l.31,6.59-.72.57Z"/>
                <polygon points="523.24 426.07 522.93 421.5 523.76 420.93 524.07 425.5 523.24 426.07"/>
                <polygon points="526.24 426.07 525.93 421.5 526.76 420.93 527.07 425.5 526.24 426.07"/>
                <polygon points="528.24 426.07 527.93 421.5 528.76 420.93 529.07 425.5 528.24 426.07"/>
                <polygon points="531.24 426.07 530.93 421.5 531.76 420.93 532.07 425.5 531.24 426.07"/>
              </g>
            </g>
            <g>
              <polygon class="cls-37" points="460.65 394.71 455.52 394.59 452.16 391.25 453.35 385.83 459.06 384.05 463.07 388 460.65 394.71"/>
              <g>
                <polygon class="cls-28" points="459.92 391.53 457.41 392.97 455.29 392.48 453.65 388.08 460.02 387.98 459.92 391.53"/>
                <path class="cls-3" d="M459.28,389.25c-.41,2.57-2.96,2.59-3.58.21l3.58-.21Z"/>
              </g>
            </g>
            <g>
              <path class="cls-38" d="M500.36,389.2l-2.01,6.66-7.23,2.62c-5.38-.9-8.58-4.16-8.16-9.53l.13-3.66,4.59-4.3,4.65-.46,5.02,1.65,2.62,4.17.39,2.85Z"/>
              <path class="cls-44" d="M497.65,393.6l-3.13,2.72-3.06.74-2.51-1.05-2.69-1.33-1.29-2.68-1.03-2.46.71-3.16c.67-1.27,3.19-3.34,4.74-3.97h3.15s2.96,1.32,2.96,1.32l1.77,1.84,1.78,3.69-1.4,4.33Z"/>
              <g>
                <path class="cls-8" d="M487.52,392.4l-.02-5.79c3.26-1.7,4.74-1.71,7.98,0v5.79c-3.24,1.69-4.72,1.69-7.96,0Z"/>
                <polygon points="494.16 389.58 491.37 392.02 488.94 389.56 491.58 386.94 494.16 389.58"/>
              </g>
            </g>
            <g>
              <path class="cls-51" d="M563.6,405.06l2.52-1.16c1.92-.47,4.31-2.28,5.51-4.13l2.24-3.92,1.03-1.8.31,5.93.52,5.03-3.7.3-3.16-.06-2.79-.07-2.48-.11Z"/>
              <polygon class="cls-51" points="574.89 383.92 573.21 381.88 571.71 379.32 568.57 376.44 566 375.17 564.05 373.59 570.07 373.5 574.93 373.8 575.22 376.78 574.89 383.92"/>
              <g>
                <path class="cls-20" d="M564.05,373.59c6.65,1.24,9.93,3.24,10.84,10.34v10.12c-.73,7.81-3.26,10.48-11.29,11.02l-2.6.21-3-.06-3.04.08-2.65-.23-8.06-7.38-.61-2.66.15-3.02v-3.01s-.17-3.01-.17-3.01l1.01-5.02,5.43-5.12,4.48-2.88,3.42.53,3.04-.16,3.06.25Z"/>
                <g>
                  <path class="cls-48" d="M570.57,398.17l-4.36,3.53-9.08,1.72-5.39-2.38c-3.08-2.21-5.1-5.95-5.68-9.92-.64-5.98,1.7-10.51,6.68-13.54,3.65-1.9,8.07-1.91,12.3-.66l4.25,3.29,2.6,3.64,1.17,2.64c.06,3.55-.97,8.32-2.5,11.68Z"/>
                  <path class="cls-6" d="M567.37,398.14c-2.01,1.79-4.43,2.72-7.35,3.48-3.86-.88-5.88-1.61-9.27-3.4l-3.59-8.14c1.2-4.03,1.86-5.86,3.59-9.33l8.16-3.44c4.12.79,6.68,1.78,9.48,4.14l2.54,3.93.08,8.35-3.64,4.41Z"/>
                  <g>
                    <path class="cls-14" d="M555.93,379.89c2.08-.7,5.25-.75,7.36.15l1.11-.17c.75,1.05.81,1.33-.55,1.22l-.47,1.06c-2.82-.76-5.67-.87-8.56-.32l-3.83,3.79-.91,3.45.87,4.3,4.68,4.71,2.41,1.04c-.12.71-.85.75-2.19.12l-3.46-1.75c-1.9-2.7-3.12-5.01-3.9-7.99.8-3,1.98-5.24,3.9-8.04l3.53-1.57Z"/>
                    <path class="cls-36" d="M567.22,395.08l-.17-9.01c-1.8-1.85-2.87-3.51-3.21-4.98l.55-1.22,4.83,4.92,1.04,4.19-.71,4.33-1,1.7-1.32.08Z"/>
                    <polygon class="cls-31" points="565.3 398.65 558.04 400.55 555.86 399.24 558.05 399.12 561.47 398.23 565.3 398.65"/>
                    <polygon class="cls-36" points="563.28 380.04 555.93 379.89 556.12 379.04 562.28 378.92 563.28 380.04"/>
                    <g>
                      <path class="cls-27" d="M555.02,383c1.88.67,1.78,1.94-.29,3.81-2.43,5.7,2.87,10.28,8.09,7.13l2.01.98c1.56-1.68,2.36-1.63,2.4.16l-1.92,3.57c-2.6.39-5.02.55-7.26.47-8.78-1.33-12.16-13.92-3.22-17.3,1.88-.5,2.01.28.19,1.18Z"/>
                      <path class="cls-10" d="M564.82,394.92c-3.46,2.98-8.05,2.8-10.88-.47-2.88-3.21-2.71-7.74.87-10.71l.2-.74c3.56-3.77,11.42-1.03,12.35,4.56.43,2.55.3,7.07-2.55,7.36Z"/>
                      <path class="cls-33" d="M563.84,381.09l4.09,4.34.06,8.24-.77,1.41-2.4-.16c1.97-2.46,2.83-5.82,1.5-8.57-1.43-2.91-4.85-4.59-8.23-4.48l-3.07,1.14-.19-1.18,1-.91,8.02.18Z"/>
                      <polygon class="cls-19" points="561.37 395.37 554.63 392.72 554.28 387.54 557.87 383.94 564.37 386.36 564.71 391.3 561.37 395.37"/>
                    </g>
                  </g>
                </g>
              </g>
            </g>
            <g>
              <path class="cls-20" d="M538.98,388.27l-.09.91-1.52,9.29c-2.5,2.26-4.58,3.41-6.24,3.46-12.86,2.26-20.44-.45-18.27-15.27-.77-3.24,2.17-11.43,6.19-8.33,9.01-4.34,19.45-1.77,19.92,9.94Z"/>
              <g>
                <path class="cls-51" d="M531.14,401.93c.75.55.64.9-.3,1.07l-18.81-.07.22-10.88-.12-5.47c.19-.87.45-.81.75.08l.86,8.38,2.92,3.38,1.8,1.99,1.54,1.19h1.48s9.67.33,9.67.33Z"/>
                <path class="cls-51" d="M538.98,388.27l-1.39-1.94-.44-2.58-5.91-5.95-8.74-.84-3.45,1.37c-2.47-1.03-1.74-1.81,2.19-2.36l6.75.2,11.01-.17-.34,9.12.31,3.16Z"/>
                <polygon class="cls-51" points="530.83 403 531.14 401.93 530.92 400.47 533.59 399.95 534.22 397.99 536.41 396.8 537.41 394.36 537.95 390.88 538.89 389.18 538.98 402.99 530.83 403"/>
                <path class="cls-51" d="M521.26,375.96l-1.81,1.19c.1-.3-.25.76-.38,1.17l-2.29,1.4-1.82,3.48-1.8,1.32.83.98-1.1,1.15-.75-.08-.09-10.55,9.23-.06Z"/>
                <path class="cls-43" d="M529.16,379.86l-.06.72c-2.54-.4-4.91-.26-7.11.41l.15,1.15c-9.24,6.25-2.96,18.46,7.59,14.18l1.19.61c.91-1.48,1.47-1.39,1.29.44-1.61,1.41-4.45,2.55-6.97,3.1l-4.53-1.28-4.87-4.91-1.5-4.62,3.43-7.85c3.24-1.78,5.57-2.63,9.09-3.4l2.27,1.45Z"/>
                <path class="cls-17" d="M529.16,379.86l5.09,3.8c2.1,4.47,2.33,7.38-.18,11.39l-1.84,2.3-1.29-.44c-1.75-.66-.69-2.64,1.01-1.99-.95-.53-.53-1.41,1.27-2.65.7-3.17.12-5.59-1.73-7.27l.56-1.12c-1.17.4-2.36-.21-3.56-1.84-2.98.5-5.15.15-6.49-1.06l.7-.99,6.46-.14Z"/>
                <path class="cls-41" d="M532.05,383.89c1.04,2.28.29,2.72-2.26,1.32-3.75-.86-10.8.29-9.21,5.88.93,3.25,6.24,3.85,8.98,2.81,2.23-.84,3.02-.49,2.39,1.04l-1.01,1.99-1.24,1.06h-8.37s-4.35-4.68-4.35-4.68l-.42-3.81.4-3.8,4.28-4.51.76-.19,6.79.02,3.26,2.88Z"/>
                <path class="cls-7" d="M531.95,394.93l-2.39-1.04c-1.48-2.21-.55-2.64,1.45-.88,1.26-2.12,1.27-4.66.29-6.93-1.29,1.48-1.98,1.04-1.51-.88l2.26-1.32,1.87,2.56.05,6.14-2.01,2.34Z"/>
                <g>
                  <path class="cls-49" d="M529.79,385.2l1.51.88c1.02,2.06.95,5.04-.29,6.93l-1.45.88-.77,1.85-3.21.87c-2.74-.36-5.67-2.55-6.87-5.02.17-3.56.7-5.17,2.78-8.33l7.07-.17,1.22,2.12Z"/>
                  <polygon class="cls-34" points="531 393.02 531.3 386.08 532.8 387.76 532.46 391.99 531 393.02"/>
                  <g>
                    <path class="cls-18" d="M527.96,394.63c-2.05.36-3.84.15-5.35-.61-1.35-2.36-1.75-4.58-1.37-7.51,3.06-1.73,4.82-1.86,7.61-.72.84,1.8,1.16,4.48,1.01,6.35l-1.9,2.5Z"/>
                    <polygon class="cls-21" points="527.96 394.63 523.68 395.32 522.61 394.02 527.96 394.63"/>
                    <polygon points="523.69 386.74 527.85 387.77 527.32 391.82 523.16 391.33 523.69 386.74"/>
                  </g>
                </g>
              </g>
            </g>
            <g>
              <path class="cls-44" d="M600.05,373.55c5.89,1.13,8.44,3.63,8.8,9.76l.33,11.91-2.48,5.31-2.34,1.82-2.95,2.48-3.39.4-10.42-.16c-2.41.02-2.74-.33-.66-.55-5.09.4-8.5-3.92-8.93-8.75l.07-14.05c.62-4.87,3.76-7.6,9.41-8.19l2.41.7,6.14-.55,4-.11Z"/>
              <g>
                <polygon class="cls-38" points="587.6 405.06 584.99 405.17 581.16 405.49 579.57 403.5 577.61 400.56 578.01 395.75 578.84 397.29 584.7 403.17 587.39 403.91 587.6 405.06"/>
                <path class="cls-12" d="M608.85,383.31l-1.04-2.33c-1.6-2.17-4.16-4.57-6.5-6.1l-1.26-1.33,3.15.05,2.03-.5,3.98,1.06-.35,9.14Z"/>
                <polygon class="cls-20" points="587.5 373.52 586.45 375.11 583.77 375.66 579.92 379.85 578.09 381.71 577.87 377.99 577.63 374.37 581.78 373.19 584.99 373.64 587.5 373.52"/>
                <path class="cls-31" d="M601.29,378.01c-.98.94-2.79.71-5.43-.7-4.09-.63-7.22.13-7.8,1.82-.66,1.81-1.36,1.55-1.3-.44-.8,1.81-2.35,3.27-4.24,3.9-5.35,11.01,5.34,24.31,16.39,17.22,1.86-1.18,3.61-2.04,5.26-2.59-.07-.9.21-.96.82-.24.9-.49.96-.09.2,1.2l-2.97,2.88-3.2,1.81-2.43,1.04h-7.11s-3.77-1.89-3.77-1.89l-4.9-4.68-.61-2.52-1.12-2.24v-5.6s1.14-3.82,1.14-3.82c2.06-3.49,5.33-6.12,9.08-8.04l6.73-.15,2.31.77,2.94,2.26Z"/>
                <polygon class="cls-41" points="605.19 398.19 604.99 396.99 606.89 392.56 606.87 386.46 605.79 382.9 606.91 383.52 607.98 385.41 607.87 393.61 606.92 396.34 605.19 398.19"/>
                <g>
                  <path class="cls-50" d="M601.29,378.01l4.5,4.88c2.52,3.45,2.58,11.33-.8,14.09l-.82.24c-1.49.69-1.6-.07-.33-2.28-1.74-.66-2.02-2.07-.83-4.23,0-2.06-.46-4.01-1.36-5.84l1.4-1.84c-.59-1.54-1.61-2.33-3.03-3.1-.95,1.56-2.64,1.64-5.07.22-2.86.42-5.15.09-6.88-1.01l.08-1.91,3.33-1.06,4.05.12,5.76,1.72Z"/>
                  <polygon class="cls-4" points="598.91 399.82 598.63 402.04 595.95 401.98 593.52 403.14 591.13 402.17 586.79 401.27 581.74 396.2 580.82 391.89 579.95 389.52 580.62 386.77 582.52 382.6 582.05 385.42 582.1 392.54 583.98 396.2 586.81 399.31 593.87 401.47 598.91 399.82"/>
                  <path class="cls-40" d="M604.16,397.23c-1.18,1.52-3.24,2.77-5.26,2.59l2.58-2.32,2.35-2.55.33,2.28Z"/>
                  <path class="cls-23" d="M582.52,382.6l4.24-3.9c.09,1.94-2.13,4.19-4.24,3.9Z"/>
                  <polygon class="cls-23" points="603.05 383.03 600.01 379.93 602.63 380.84 603.05 383.03"/>
                  <g>
                    <path class="cls-1" d="M600.01,379.93c1.46.76,2.53,1.47,3.03,3.1l1.52,3.62.41,4.26-1.14,4.03c-.2,2.58-2.65,4.05-4.93,4.87-1.93,3.1-8.84,2.24-11.85.52-5.98-3.4-7.2-11.87-4.54-17.74,1.89-.67,3.4-2.08,4.24-3.9l1.3.44,2.38-1.04,5.13.05,4.45,1.77Z"/>
                    <path class="cls-25" d="M597.28,399.11h-4.42c-4.71-.07-8.96-4.27-9.03-8.95l.07-4.46,5.41-5.61,7.96-.21,5.69,5.47v8.31s-5.69,5.46-5.69,5.46Z"/>
                    <g>
                      <polygon class="cls-35" points="598.41 395.2 596.15 397.11 592.95 398.32 590.51 397.52 588.97 395.85 594.23 396.15 596.53 395.08 598.41 395.2"/>
                      <path class="cls-9" d="M596.07,381.99l.11,1.01-6.49-.19,1.24-.85c1.61-.69,3.32-.68,5.14.03Z"/>
                      <polygon class="cls-52" points="596.07 381.99 590.93 381.96 592.93 380.62 596.07 381.99"/>
                      <polygon class="cls-52" points="586.22 392.04 584.29 390.28 586.07 386.87 586.22 392.04"/>
                      <g>
                        <path class="cls-39" d="M596.19,383.01l1.53-.47c1.51,2.38,2.84,5.23,3.64,7.98l-2.94,4.69c-3.4,2.14-6.55,2.36-9.44.65l-1.66-2.24-1.09-1.56c-1.03-1.43-1.08-3.15-.15-5.17l3.63-4.06c1.97-.55,4.76-.74,6.49.19Z"/>
                        <polygon class="cls-26" points="595.51 395.03 592.68 394.46 589.88 393.62 588.39 390.36 588.47 388.7 589.39 385.86 592.55 384.46 595.75 384.28 598.72 388.25 598.72 390.72 595.51 395.03"/>
                        <polygon class="cls-16" points="597.16 390.49 594.21 393.16 591 392.01 589.82 388.71 592.73 385.82 596.09 387.01 597.16 390.49"/>
                      </g>
                    </g>
                  </g>
                </g>
              </g>
            </g>
          </g>
        </g>
        <g>
          <polygon class="cls-46" points="627.08 301.01 617.01 301.01 616.99 311.03 616 310.84 616.01 300.01 626.84 300 627.08 301.01"/>
          <g>
            <path class="cls-22" d="M627.08,301.01l-.49,9.7-9.6.32c-.59-1.11-.86-10.08-.48-10.46s9.38-.2,10.57.43Z"/>
            <polygon points="625.34 309.15 620.91 309.39 617.99 308.94 618.01 302 625.17 302.01 625.34 309.15"/>
            <polygon class="cls-22" points="623.67 307.64 619.64 307.88 619.68 307.03 623.01 303.68 623.87 303.62 623.67 307.64"/>
          </g>
        </g>
        <g>
          <polygon class="cls-22" points="485 319 485 319.5 484.5 320 484 319.5 484.5 319 485 319"/>
          <path class="cls-22" d="M486.95,323.06c-.62-.38-.57-.72.13-1.01l-.13,1.01Z"/>
          <path class="cls-22" d="M481.11,323.93l-1.02.2c-.72-.26-.73-.7-.09-1.13l1.12.93Z"/>
          <path class="cls-22" d="M484.91,324.11l-.91-.11.97-.96c.68.35.65.71-.06,1.07Z"/>
          <path class="cls-22" d="M479.01,325.02v-1.02c.4-.66.76-.6,1.08.13l-1.08.89Z"/>
          <path class="cls-22" d="M487,319c-.66-.29-.64-.63,0-1v1Z"/>
          <path class="cls-22" d="M486.95,323.94c-.41.57-.72.49-.95-.19-.69-.28-.68-.62-.02-1,.48-.49.8-.37.97.32v.88Z"/>
          <polygon class="cls-22" points="481.11 323.93 481.5 324 482 324.5 481.5 325 481 324.5 481.11 323.93"/>
          <polygon class="cls-22" points="484 324 484 324.5 483.5 325 483 324.5 483.5 324 484 324"/>
          <path class="cls-22" d="M485.99,324.75l-1.07-.65c.17-.72.51-.85,1.09-.36.64.31.62.65-.02,1.01Z"/>
          <path class="cls-22" d="M487.07,324.92c-.71-.2-.74-.53-.12-.98l.12.98Z"/>
          <path class="cls-22" d="M485.94,325.93c.71.3.7.65.02,1.06l-1.85.76-.57-.67-1.42.67-.58-.67-1.42.67-.62-.74-.5-.5-.77-.76c-.2.18.51-.48.77-.72v.48s.49.5.49.5l.5.5.46.43,1.42-.67.58.67,1.42-.67.59.7,1.47-1.03Z"/>
          <path class="cls-22" d="M487.02,325.96c-.34.68-.7.66-1.08-.03l.05-1.18c.42-.58.78-.51,1.09.17l-.05,1.04Z"/>
          <path class="cls-22" d="M485.96,326.99c.31-.69.66-.67,1.04.01h-1.04Z"/>
          <path class="cls-22" d="M485.99,322.74c-.12.71-.47.79-1.02.29l1.07-1.13c.68.23.64.52-.05.84Z"/>
          <rect class="cls-22" x="407.03" y="312" width="219.93" height="26"/>
          <path class="cls-22" d="M487.08,322.05c-.4.56-.74.5-1.04-.15l1.54-1.18-.5,1.33Z"/>
          <path class="cls-22" d="M487,318c-.29.66-.63.64-1,0h1Z"/>
          <path class="cls-22" d="M486,318c.66.29.64.63,0,1h-1s0-.5,0-.5l-.75-.72.52-.57.73.79h.5Z"/>
          <path class="cls-22" d="M479.99,323c-.29.7-.62.69-.99,0l.03-.48-.83-.75.58-.51.74.73.47,1.01Z"/>
          <path class="cls-22" d="M487.58,320.72l-.57-.22-.52-.49-.5-1c.29-.66.63-.64,1,0l-.07.43.65.58v.71Z"/>
          <path class="cls-22" d="M479,324v-1c.68.29.66.63,0,1Z"/>
          <polygon points="612.1 328.98 512.49 329.01 511.9 328.02 611.51 327.99 612.1 328.98"/>
          <g>
            <path class="cls-2" d="M490.13,315l-1.64,2-10.48.03v9.95c3.98-.44,7.31-.09,9.99,1.04l1.61-.04.45,1.64-2.12.39h-78.91s0-16.01,0-16.01h80.71s.39,1,.39,1Z"/>
            <rect class="cls-46" x="410.03" y="315" width="64.94" height="14"/>
            <g>
              <path d="M439.27,325.73c3.27-.64,3.16-2.42,1.38-2.9-1.62-.42-2.1-.55-.91-.24l3.2-1.62.06,5.07-3.73-.31Z"/>
              <polygon points="414 320.89 414.01 325.51 413.14 326.08 412.98 316.89 415.15 318.52 414 320.89"/>
              <polygon points="419.02 326.11 416.85 324.48 418 322.11 417.99 317.49 418.86 316.92 419.02 326.11"/>
              <polygon points="444.16 326.06 443.94 317.49 444.84 316.94 445.06 325.51 444.16 326.06"/>
              <polygon points="432.5 320.99 431 321.09 431 325.51 430.21 326.08 429.92 319.98 433.02 320.33 433.87 321.02 433.59 326.19 432.85 321.52 432.5 320.99"/>
              <path d="M428.14,320.21l-.17,5.3-.76.56-.29-5.99c1.03.11,2.92.32,1.22.13Z"/>
              <polygon points="436.24 326.07 435.93 321.5 436.76 320.93 437.07 325.5 436.24 326.07"/>
            </g>
          </g>
          <g>
            <polygon class="cls-46" points="487.07 324.92 485.99 324.75 486.01 323.75 486.95 323.94 487.07 324.92"/>
            <polygon class="cls-46" points="486.95 323.06 485.99 322.74 486.04 321.9 487.08 322.05 486.95 323.06"/>
            <path class="cls-46" d="M483.02,323.36l-1.1-.07c-.5-.72-.47-1.23.11-1.53.61-.5.94-.32.98.49v1.1Z"/>
            <path class="cls-46" d="M483.1,319.19c-.18.48-.8.32-1.84-.49l1-1.41,1.45.92-.6.98Z"/>
            <rect class="cls-46" x="486" y="318" width="1" height="1"/>
            <path class="cls-46" d="M484.13,322.12l-1.13.13c-.63-.43-.66-.82,0-1.25h1c.53.16.47.69.13,1.12Z"/>
            <polygon class="cls-46" points="480.09 324.13 479 324 479 323 479.99 323 480.09 324.13"/>
            <path class="cls-46" d="M483,321c-.29.68-.63.66-1,0-.41-.25-.37-.76.12-1.53.52-.45.86.12.85.77l.03.76Z"/>
            <polygon class="cls-46" points="490.13 315 490.27 316.55 488.58 317.1 489.07 317.92 490.2 318.92 490.11 320 490.12 321 490.13 322 489.99 323 489.99 324 490.09 325.09 488.54 327.03 488 327.5 488 328.02 487.84 329 476 328.99 476.01 315.01 490.13 315"/>
            <path class="cls-46" d="M482.02,321.76c-.15.93-.47,1.06-1.12.34-.6-.38-.55-.75.1-1.1.31-.4.65-.39,1,0,.67.1.65.36.02.76Z"/>
            <polygon class="cls-46" points="486.01 323.75 484.91 324.11 484.97 323.04 485.99 322.74 486.01 323.75"/>
            <polygon class="cls-46" points="487 327 485.96 326.99 485.94 325.93 487.02 325.96 487 327"/>
            <g>
              <path d="M490.2,318.92l-1.13-1.01,1.13,1.01Z"/>
              <path class="cls-42" d="M489.07,317.92l-.48-.82.48.82Z"/>
              <path d="M490.12,321v-1s0,1,0,1Z"/>
              <path d="M490.09,325.09l-.1-1.09.1,1.09Z"/>
              <path d="M489.99,323l.14-1-.14,1Z"/>
              <polygon class="cls-22" points="480 319 479 319 480 318 480 319"/>
              <polygon class="cls-22" points="479 319 479 319.5 478.5 320 478 319.5 478.5 319 479 319"/>
              <polygon class="cls-22" points="480 319 480.5 319 481 319.5 480.5 320 480 319.5 480 319"/>
              <polygon class="cls-22" points="480 318 480 317.5 480.5 317 481 317.5 480.5 318 480 318"/>
              <path d="M481.26,318.7l1-1.41-1,1.41Z"/>
              <path d="M483.1,319.19l.6-.98-.6.98Z"/>
              <polygon points="482.97 320.24 482.12 319.47 481.26 318.7 483.1 319.19 482.97 320.24"/>
              <polygon points="481 321 480.9 322.1 479.99 321.52 479.26 320.78 479.77 320.2 480.5 321 481 321"/>
              <polygon points="484 320.99 483 321 482.97 320.24 484 320.99"/>
              <polygon points="485.11 321.07 485 320.5 485.5 320 486 320.5 485.5 321 485.11 321.07"/>
              <polygon points="481.92 323.29 480.9 322.1 482.02 321.76 481.92 323.29"/>
              <polygon points="483.02 323.36 483.01 322.26 484.13 322.12 483.02 323.36"/>
              <path d="M483.7,318.21l-1.45-.92,1.45.92Z"/>
              <polygon points="484.13 322.12 484 320.99 485.11 321.07 484.13 322.12"/>
              <path d="M481.92,323.29l1.1.07-1.1-.07Z"/>
              <polygon points="483.01 322.26 482.02 321.76 482 321 483 321 483.01 322.26"/>
              <polygon points="482 321 481 321 482.12 319.47 482 321"/>
              <rect class="cls-42" x="488.15" y="319.15" width=".71" height=".71" transform="translate(-82.84 439) rotate(-45)"/>
              <rect class="cls-42" x="488.15" y="325.15" width=".71" height=".71" transform="translate(-87.08 440.76) rotate(-45)"/>
              <rect class="cls-42" x="488.15" y="323.15" width=".71" height=".71" transform="translate(-85.67 440.17) rotate(-45)"/>
              <rect class="cls-42" x="488.15" y="321.15" width=".71" height=".71" transform="translate(-84.26 439.59) rotate(-45)"/>
              <rect x="480.15" y="325.15" width=".71" height=".71" transform="translate(-89.43 435.1) rotate(-45)"/>
              <rect x="484.15" y="325.15" width=".71" height=".71" transform="translate(-88.26 437.93) rotate(-45)"/>
              <rect x="482.15" y="325.15" width=".71" height=".71" transform="translate(-88.84 436.52) rotate(-45)"/>
            </g>
          </g>
        </g>
      </g>
    </g>
  </g>
</svg>